<svg id="Capa_1" enable-background="new 0 0 510 510" height="512" viewBox="0 0 510 510" width="512" xmlns="http://www.w3.org/2000/svg" xmlns:xlink="http://www.w3.org/1999/xlink"><linearGradient id="SVGID_1_" gradientUnits="userSpaceOnUse" x1="273.323" x2="273.323" y1="16.526" y2="79.361"><stop offset="0" stop-color="#6b0"/><stop offset="1" stop-color="#0b799d"/></linearGradient><linearGradient id="SVGID_2_" gradientUnits="userSpaceOnUse" x1="228.596" x2="228.596" y1="16.526" y2="79.361"><stop offset="0" stop-color="#90cc1c"/><stop offset="1" stop-color="#6b0"/></linearGradient><linearGradient id="SVGID_3_" gradientUnits="userSpaceOnUse" x1="231.141" x2="414.441" y1="20.373" y2="591.332"><stop offset="0" stop-color="#b9dd39"/><stop offset="1" stop-color="#0b799d"/></linearGradient><linearGradient id="lg1"><stop offset="0" stop-color="#fdbf00"/><stop offset="1" stop-color="#ff9100"/></linearGradient><linearGradient id="SVGID_4_" gradientUnits="userSpaceOnUse" x1="372.569" x2="386.917" xlink:href="#lg1" y1="109.346" y2="120.277"/><linearGradient id="SVGID_5_" gradientUnits="userSpaceOnUse" x1="412.608" x2="426.955" xlink:href="#lg1" y1="109.346" y2="120.277"/><linearGradient id="SVGID_6_" gradientUnits="userSpaceOnUse" x1="452.646" x2="466.994" xlink:href="#lg1" y1="109.346" y2="120.277"/><linearGradient id="lg2"><stop offset="0" stop-color="#0b799d" stop-opacity="0"/><stop offset=".3645" stop-color="#096380" stop-opacity=".365"/><stop offset=".76" stop-color="#084f67" stop-opacity=".76"/><stop offset="1" stop-color="#07485e"/></linearGradient><linearGradient id="SVGID_7_" gradientUnits="userSpaceOnUse" x1="292.049" x2="445.266" xlink:href="#lg2" y1="231.758" y2="-163.566"/><linearGradient id="SVGID_8_" gradientUnits="userSpaceOnUse" x1="298.875" x2="298.875" xlink:href="#lg2" y1="341.527" y2="424.184"/><linearGradient id="SVGID_9_" gradientUnits="userSpaceOnUse" x1="229.448" x2="229.448" y1="74.872" y2="137.708"><stop offset="0" stop-color="#0095ff"/><stop offset="1" stop-color="#0b799d"/></linearGradient><linearGradient id="SVGID_10_" gradientUnits="userSpaceOnUse" x1="184.721" x2="184.721" y1="74.872" y2="137.708"><stop offset="0" stop-color="#48b2e3"/><stop offset="1" stop-color="#0095ff"/></linearGradient><linearGradient id="SVGID_11_" gradientUnits="userSpaceOnUse" x1="79.066" x2="341.967" y1="113.77" y2="376.671"><stop offset="0" stop-color="#76e2f8"/><stop offset="1" stop-color="#48b2e3"/></linearGradient><linearGradient id="lg3"><stop offset="0" stop-color="#edf5ff"/><stop offset="1" stop-color="#d5e8fe"/></linearGradient><linearGradient id="SVGID_12_" gradientUnits="userSpaceOnUse" x1="328.694" x2="343.042" xlink:href="#lg3" y1="167.692" y2="178.624"/><linearGradient id="SVGID_13_" gradientUnits="userSpaceOnUse" x1="368.733" x2="383.08" xlink:href="#lg3" y1="167.692" y2="178.624"/><linearGradient id="SVGID_14_" gradientUnits="userSpaceOnUse" x1="408.771" x2="423.119" xlink:href="#lg3" y1="167.692" y2="178.624"/><linearGradient id="lg4"><stop offset="0" stop-color="#b5dbff" stop-opacity="0"/><stop offset=".1734" stop-color="#8fc5e9" stop-opacity=".173"/><stop offset=".4541" stop-color="#56a4c8" stop-opacity=".454"/><stop offset=".6955" stop-color="#2d8db1" stop-opacity=".696"/><stop offset=".8853" stop-color="#147ea2" stop-opacity=".885"/><stop offset="1" stop-color="#0b799d"/></linearGradient><linearGradient id="SVGID_15_" gradientUnits="userSpaceOnUse" x1="250.162" x2="258.742" xlink:href="#lg4" y1="455.732" y2="124.233"/><linearGradient id="SVGID_16_" gradientUnits="userSpaceOnUse" x1="255" x2="255" xlink:href="#lg4" y1="399.874" y2="482.53"/><linearGradient id="SVGID_17_" gradientUnits="userSpaceOnUse" x1="185.573" x2="185.573" y1="133.219" y2="196.054"><stop offset="0" stop-color="#ff9100"/><stop offset="1" stop-color="#e63950"/></linearGradient><linearGradient id="SVGID_18_" gradientUnits="userSpaceOnUse" x1="140.846" x2="140.846" xlink:href="#lg1" y1="133.219" y2="196.054"/><linearGradient id="SVGID_19_" gradientUnits="userSpaceOnUse" x1="35.191" x2="298.092" y1="172.116" y2="435.018"><stop offset="0" stop-color="#ffda2d"/><stop offset="1" stop-color="#fdbf00"/></linearGradient><linearGradient id="lg5"><stop offset="0" stop-color="#ff637b"/><stop offset="1" stop-color="#e63950"/></linearGradient><linearGradient id="SVGID_20_" gradientUnits="userSpaceOnUse" x1="284.82" x2="299.167" xlink:href="#lg5" y1="226.039" y2="236.97"/><linearGradient id="SVGID_21_" gradientUnits="userSpaceOnUse" x1="324.858" x2="339.205" xlink:href="#lg5" y1="226.039" y2="236.97"/><linearGradient id="SVGID_22_" gradientUnits="userSpaceOnUse" x1="364.896" x2="379.244" xlink:href="#lg5" y1="226.039" y2="236.97"/><linearGradient id="SVGID_23_" gradientUnits="userSpaceOnUse" x1="211.125" x2="211.125" y1="458.22" y2="540.877"><stop offset="0" stop-color="#ff9100" stop-opacity="0"/><stop offset="1" stop-color="#ff9100"/></linearGradient><g><g><path d="m360.357 79.322h-174.069v-49.576c0-16.428 13.318-29.746 29.746-29.746h114.577c16.428 0 29.746 13.318 29.746 29.746z" fill="url(#SVGID_1_)"/><path d="m315.63 79.322h-174.069v-49.576c0-16.428 13.318-29.746 29.746-29.746h114.577c16.428 0 29.746 13.318 29.746 29.746z" fill="url(#SVGID_2_)"/><path d="m268.257 56.462v-26.716c0-16.428-13.318-29.746-29.746-29.746h-114.577c-16.428 0-29.746 13.318-29.746 29.746v321.184c0 23.404 18.973 42.377 42.377 42.377h324.619c23.404 0 42.377-18.973 42.377-42.377v-239.146c0-23.404-18.973-42.377-42.377-42.377h-179.982c-7.149 0-12.945-5.796-12.945-12.945z" fill="url(#SVGID_3_)"/><g><path d="m381.161 127.705h-10.206c-5.853 0-10.598-4.745-10.598-10.598v-10.206c0-5.853 4.745-10.598 10.598-10.598h10.206c5.853 0 10.598 4.745 10.598 10.598v10.206c.001 5.853-4.744 10.598-10.598 10.598z" fill="url(#SVGID_4_)"/><path d="m421.2 127.705h-10.206c-5.853 0-10.598-4.745-10.598-10.598v-10.206c0-5.853 4.745-10.598 10.598-10.598h10.206c5.853 0 10.598 4.745 10.598 10.598v10.206c0 5.853-4.745 10.598-10.598 10.598z" fill="url(#SVGID_5_)"/><path d="m461.238 127.705h-10.206c-5.853 0-10.598-4.745-10.598-10.598v-10.206c0-5.853 4.745-10.598 10.598-10.598h10.206c5.853 0 10.598 4.745 10.598 10.598v10.206c.001 5.853-4.744 10.598-10.598 10.598z" fill="url(#SVGID_6_)"/></g><path d="m461.184 393.307c23.404 0 42.377-18.973 42.377-42.377v-154.328l-54.359-54.359c-7.768-8.876-19.172-14.49-31.893-14.49h-49.703l-57.732-58.347h-28.673-187.013v281.075c0 23.651 19.173 42.824 42.824 42.824h324.172z" fill="url(#SVGID_7_)"/><path d="m94.188 304.069v46.861c0 23.404 18.973 42.377 42.377 42.377h324.619c23.404 0 42.377-18.973 42.377-42.377v-46.861z" fill="url(#SVGID_8_)"/></g><g><path d="m316.482 137.669h-174.068v-49.576c0-16.428 13.318-29.746 29.746-29.746h114.577c16.428 0 29.746 13.318 29.746 29.746v49.576z" fill="url(#SVGID_9_)"/><path d="m271.755 137.669h-174.068v-49.576c0-16.428 13.318-29.746 29.746-29.746h114.577c16.428 0 29.746 13.318 29.746 29.746v49.576z" fill="url(#SVGID_10_)"/><path d="m224.382 114.809v-26.716c0-16.428-13.318-29.746-29.746-29.746h-114.577c-16.428 0-29.746 13.318-29.746 29.746v321.184c0 23.404 18.973 42.377 42.377 42.377h324.619c23.404 0 42.377-18.973 42.377-42.377v-239.146c0-23.404-18.973-42.377-42.377-42.377h-179.982c-7.149 0-12.945-5.796-12.945-12.945z" fill="url(#SVGID_11_)"/><g><path d="m337.286 186.052h-10.206c-5.853 0-10.598-4.745-10.598-10.598v-10.206c0-5.853 4.745-10.598 10.598-10.598h10.206c5.853 0 10.598 4.745 10.598 10.598v10.206c.001 5.853-4.744 10.598-10.598 10.598z" fill="url(#SVGID_12_)"/><path d="m377.325 186.052h-10.206c-5.853 0-10.598-4.745-10.598-10.598v-10.206c0-5.853 4.745-10.598 10.598-10.598h10.206c5.853 0 10.598 4.745 10.598 10.598v10.206c0 5.853-4.745 10.598-10.598 10.598z" fill="url(#SVGID_13_)"/><path d="m417.363 186.052h-10.206c-5.853 0-10.598-4.745-10.598-10.598v-10.206c0-5.853 4.745-10.598 10.598-10.598h10.206c5.853 0 10.598 4.745 10.598 10.598v10.206c.001 5.853-4.744 10.598-10.598 10.598z" fill="url(#SVGID_14_)"/></g><path d="m417.309 451.653c23.404 0 42.377-18.973 42.377-42.377v-154.327l-54.359-54.359c-7.768-8.876-19.172-14.49-31.893-14.49h-49.703l-57.731-58.346h-28.673-187.013v281.075c0 23.651 19.173 42.824 42.824 42.824z" fill="url(#SVGID_15_)"/><path d="m50.314 362.416v46.861c0 23.404 18.973 42.377 42.377 42.377h324.619c23.404 0 42.377-18.973 42.377-42.377v-46.861z" fill="url(#SVGID_16_)"/></g><g><path d="m272.607 196.016h-174.068v-49.576c0-16.428 13.318-29.746 29.746-29.746h114.577c16.428 0 29.746 13.318 29.746 29.746v49.576z" fill="url(#SVGID_17_)"/><path d="m227.88 196.016h-174.068v-49.576c0-16.428 13.318-29.746 29.746-29.746h114.577c16.428 0 29.746 13.318 29.746 29.746v49.576z" fill="url(#SVGID_18_)"/><path d="m180.507 173.155v-26.716c0-16.428-13.318-29.746-29.746-29.746h-114.576c-16.428 0-29.746 13.318-29.746 29.746v321.184c0 23.404 18.972 42.377 42.377 42.377h324.619c23.404 0 42.377-18.973 42.377-42.377v-239.146c0-23.404-18.973-42.377-42.377-42.377h-179.983c-7.149 0-12.945-5.795-12.945-12.945z" fill="url(#SVGID_19_)"/><g><path d="m293.411 244.399h-10.206c-5.853 0-10.598-4.745-10.598-10.598v-10.206c0-5.853 4.745-10.598 10.598-10.598h10.206c5.853 0 10.598 4.745 10.598 10.598v10.205c.001 5.853-4.744 10.599-10.598 10.599z" fill="url(#SVGID_20_)"/><path d="m333.45 244.399h-10.206c-5.853 0-10.598-4.745-10.598-10.598v-10.206c0-5.853 4.745-10.598 10.598-10.598h10.206c5.853 0 10.598 4.745 10.598 10.598v10.205c0 5.853-4.745 10.599-10.598 10.599z" fill="url(#SVGID_21_)"/><path d="m373.488 244.399h-10.206c-5.853 0-10.598-4.745-10.598-10.598v-10.206c0-5.853 4.745-10.598 10.598-10.598h10.206c5.853 0 10.598 4.745 10.598 10.598v10.205c.001 5.853-4.744 10.599-10.598 10.599z" fill="url(#SVGID_22_)"/></g><path d="m6.439 420.762v46.861c0 23.404 18.972 42.377 42.377 42.377h324.619c23.404 0 42.377-18.973 42.377-42.377v-46.861z" fill="url(#SVGID_23_)"/></g></g></svg>