<svg height="512pt" viewBox="0 -64 512 512" width="512pt" xmlns="http://www.w3.org/2000/svg"><path d="m507.988281 237.996094-106.792969-213.65625c-.191406-.382813-.40625-.746094-.640624-1.085938-7.273438-14.1875-21.996094-23.253906-37.886719-23.253906h-213.335938c-15.847656 0-30.570312 9.046875-37.824219 23.167969-.253906.382812-.488281.769531-.703124 1.171875l-106.792969 213.65625c-2.625 5.269531-.492188 11.667968 4.777343 14.3125 5.3125 2.644531 11.667969.511718 14.316407-4.777344l2.386719-4.777344h461.015624l2.386719 4.777344c1.878907 3.734375 5.65625 5.886719 9.539063 5.886719 1.597656 0 3.21875-.363281 4.777344-1.128907 5.269531-2.605468 7.402343-9.023437 4.777343-14.292968zm0 0" fill="#455a64"/><path d="m469.332031 213.332031h-426.664062c-23.53125 0-42.667969 19.136719-42.667969 42.667969v85.332031c0 23.53125 19.136719 42.667969 42.667969 42.667969h426.664062c23.53125 0 42.667969-19.136719 42.667969-42.667969v-85.332031c0-23.53125-19.136719-42.667969-42.667969-42.667969zm0 0" fill="#607d8b"/><path d="m85.332031 277.332031c0 11.785157-9.550781 21.335938-21.332031 21.335938s-21.332031-9.550781-21.332031-21.335938c0-11.78125 9.550781-21.332031 21.332031-21.332031s21.332031 9.550781 21.332031 21.332031zm0 0" fill="#00bcd4"/><path d="m149.332031 277.332031c0 11.785157-9.550781 21.335938-21.332031 21.335938s-21.332031-9.550781-21.332031-21.335938c0-11.78125 9.550781-21.332031 21.332031-21.332031s21.332031 9.550781 21.332031 21.332031zm0 0" fill="#00bcd4"/><path d="m469.332031 384h-426.664062c-23.53125 0-42.667969-19.136719-42.667969-42.667969v-85.332031c0-23.53125 19.136719-42.667969 42.667969-42.667969h426.664062c23.53125 0 42.667969 19.136719 42.667969 42.667969v85.332031c0 23.53125-19.136719 42.667969-42.667969 42.667969zm-426.664062-149.332031c-11.777344 0-21.335938 9.578125-21.335938 21.332031v85.332031c0 11.757813 9.558594 21.335938 21.335938 21.335938h426.664062c11.777344 0 21.335938-9.578125 21.335938-21.335938v-85.332031c0-11.753906-9.558594-21.332031-21.335938-21.332031zm0 0"/><path d="m498.433594 253.441406c-3.90625 0-7.660156-2.15625-9.539063-5.890625l-106.28125-212.648437c-.277343-.425782-.511719-.855469-.746093-1.300782-3.605469-7.574218-10.945313-12.269531-19.199219-12.269531h-213.335938c-8.253906 0-15.59375 4.695313-19.175781 12.246094-.234375.492187-.511719.9375-.8125 1.386719l-106.238281 212.566406c-2.648438 5.289062-9.027344 7.402344-14.316407 4.777344-5.269531-2.644532-7.402343-9.042969-4.777343-14.3125l106.792969-213.65625c.214843-.402344.449218-.789063.683593-1.171875 7.273438-14.121094 21.996094-23.167969 37.84375-23.167969h213.335938c15.890625 0 30.613281 9.066406 37.867187 23.230469.253906.363281.445313.726562.636719 1.089843l106.796875 213.675782c2.625 5.269531.488281 11.667968-4.78125 14.3125-1.511719.769531-3.15625 1.132812-4.753906 1.132812zm0 0"/><path d="m64 298.667969c-11.777344 0-21.332031-9.578125-21.332031-21.335938 0-11.753906 9.554687-21.332031 21.332031-21.332031s21.332031 9.578125 21.332031 21.332031c0 11.757813-9.554687 21.335938-21.332031 21.335938zm0-21.355469c0 .019531 0 .019531 0 0l10.667969.019531zm0 0"/><path d="m128 298.667969c-11.777344 0-21.332031-9.578125-21.332031-21.335938 0-11.753906 9.554687-21.332031 21.332031-21.332031s21.332031 9.578125 21.332031 21.332031c0 11.757813-9.554687 21.335938-21.332031 21.335938zm0-21.355469c0 .019531 0 .019531 0 0l10.667969.019531zm0 0"/><path d="m458.667969 341.332031h-405.335938c-5.886719 0-10.664062-4.777343-10.664062-10.664062 0-5.890625 4.777343-10.667969 10.664062-10.667969h405.335938c5.886719 0 10.664062 4.777344 10.664062 10.667969 0 5.886719-4.777343 10.664062-10.664062 10.664062zm0 0"/></svg>