<svg height="512pt" viewBox="0 -11 512.02133 512" width="512pt" xmlns="http://www.w3.org/2000/svg"><path d="m498.367188 349.433594-27.285157-54.613282-236.394531-32.277343v-145.21875h-85.332031c-11.949219 0-22.871094 6.699219-28.523438 17.515625l-.875 1.578125-106.324219 213.097656zm0 0" fill="#455a64"/><path d="m469.332031 319.992188h-426.664062c-23.53125 0-42.667969 19.136718-42.667969 42.667968v85.332032c0 23.53125 19.136719 42.667968 42.667969 42.667968h426.664062c23.53125 0 42.667969-19.136718 42.667969-42.667968v-85.332032c0-23.53125-19.136719-42.667968-42.667969-42.667968zm0 0" fill="#607d8b"/><path d="m85.332031 383.992188c0 11.78125-9.550781 21.332031-21.332031 21.332031s-21.332031-9.550781-21.332031-21.332031 9.550781-21.332032 21.332031-21.332032 21.332031 9.550782 21.332031 21.332032zm0 0" fill="#ffc107"/><path d="m149.332031 383.992188c0 11.78125-9.550781 21.332031-21.332031 21.332031s-21.332031-9.550781-21.332031-21.332031 9.550781-21.332032 21.332031-21.332032 21.332031 9.550782 21.332031 21.332032zm0 0" fill="#ffc107"/><path d="m373.355469 31.992188v106.667968h-106.667969v-96l106.242188-14.507812zm0 0" fill="#ff5722"/><path d="m501.355469 10.660156v128h-128v-106.667968l-.425781-3.839844zm0 0" fill="#ffc107"/><path d="m501.355469 138.660156v128l-128.425781-17.496094.425781-3.839843v-106.664063zm0 0" fill="#4caf50"/><path d="m373.355469 138.660156v106.664063l-.425781 3.839843-106.242188-14.503906v-96zm0 0" fill="#2196f3"/><path d="m469.355469 490.660156h-426.667969c-23.53125 0-42.6679688-19.136718-42.6679688-42.667968v-85.332032c0-23.53125 19.1367188-42.667968 42.6679688-42.667968h426.667969c23.53125 0 42.664062 19.136718 42.664062 42.667968v85.332032c0 23.53125-19.132812 42.667968-42.664062 42.667968zm-426.667969-149.335937c-11.777344 0-21.332031 9.558593-21.332031 21.335937v85.332032c0 11.777343 9.554687 21.332031 21.332031 21.332031h426.667969c11.773437 0 21.332031-9.554688 21.332031-21.332031v-85.332032c0-11.777344-9.558594-21.335937-21.332031-21.335937zm0 0"/><path d="m498.453125 360.097656c-3.902344 0-7.660156-2.175781-9.535156-5.886718l-21.503907-43.050782c-2.625-5.269531-.492187-11.691406 4.777344-14.316406 5.292969-2.644531 11.671875-.488281 14.316406 4.78125l21.503907 43.050781c2.621093 5.269531.488281 11.691407-4.78125 14.3125-1.535157.746094-3.175781 1.109375-4.777344 1.109375zm0 0"/><path d="m13.589844 360.097656c-1.601563 0-3.222656-.363281-4.777344-1.128906-5.269531-2.625-7.40625-9.046875-4.78125-14.316406l106.796875-213.652344c.191406-.40625.425781-.769531.636719-1.128906 7.277344-14.144532 22.019531-23.210938 37.890625-23.210938h74.664062c5.890625 0 10.667969 4.777344 10.667969 10.664063 0 5.890625-4.777344 10.667969-10.667969 10.667969h-74.664062c-8.277344 0-15.617188 4.695312-19.179688 12.222656-.234375.492187-.492187.941406-.789062 1.367187l-106.261719 212.628907c-1.878906 3.710937-5.652344 5.886718-9.535156 5.886718zm0 0"/><path d="m64.019531 405.324219c-11.773437 0-21.332031-9.554688-21.332031-21.332031 0-11.777344 9.558594-21.332032 21.332031-21.332032 11.777344 0 21.335938 9.554688 21.335938 21.332032 0 11.777343-9.558594 21.332031-21.335938 21.332031zm0-21.351563 10.667969.019532zm0 0"/><path d="m128.019531 405.324219c-11.773437 0-21.332031-9.554688-21.332031-21.332031 0-11.777344 9.558594-21.332032 21.332031-21.332032 11.777344 0 21.335938 9.554688 21.335938 21.332032 0 11.777343-9.558594 21.332031-21.335938 21.332031zm0-21.351563 10.667969.019532zm0 0"/><path d="m458.6875 447.992188h-405.332031c-5.890625 0-10.667969-4.777344-10.667969-10.667969 0-5.886719 4.777344-10.664063 10.667969-10.664063h405.332031c5.886719 0 10.667969 4.777344 10.667969 10.664063 0 5.890625-4.78125 10.667969-10.667969 10.667969zm0 0"/><path d="m501.355469 277.324219c-.46875 0-.960938-.042969-1.429688-.105469l-234.667969-32c-5.289062-.703125-9.238281-5.226562-9.238281-10.558594v-192c0-5.335937 3.949219-9.855468 9.238281-10.5625l234.667969-31.9999998c3.070313-.3828122 6.144531.4921878 8.449219 2.5195318 2.300781 2.046874 3.644531 4.949218 3.644531 8.042968v256c0 3.09375-1.34375 5.992188-3.644531 8.042969-1.964844 1.707031-4.460938 2.621094-7.019531 2.621094zm-224-51.988281 213.332031 29.078124v-231.53125l-213.332031 29.097657zm0 0"/><path d="m373.355469 255.992188c-5.890625 0-10.667969-4.777344-10.667969-10.667969v-213.332031c0-5.886719 4.777344-10.667969 10.667969-10.667969 5.886719 0 10.664062 4.78125 10.664062 10.667969v213.332031c0 5.890625-4.777343 10.667969-10.664062 10.667969zm0 0"/><path d="m501.355469 149.324219h-234.667969c-5.886719 0-10.667969-4.777344-10.667969-10.664063 0-5.890625 4.78125-10.667968 10.667969-10.667968h234.667969c5.886719 0 10.664062 4.777343 10.664062 10.667968 0 5.886719-4.777343 10.664063-10.664062 10.664063zm0 0"/></svg>